HIERARCHY
ROOT Hips
{
	OFFSET 0.000000 1.471914 24.280096
	CHANNELS 6 Xposition Yposition Zposition Xrotation Yrotation Zrotation
	JOINT Spine
	{
		OFFSET 0.000000 0.900110 1.860670
		CHANNELS 6 Xposition Yposition Zposition Xrotation Yrotation Zrotation
		JOINT Spine1
		{
			OFFSET 0.000000 0.400320 2.270309
			CHANNELS 6 Xposition Yposition Zposition Xrotation Yrotation Zrotation
			JOINT Spine2
			{
				OFFSET 0.000000 0.200920 2.296560
				CHANNELS 6 Xposition Yposition Zposition Xrotation Yrotation Zrotation
				JOINT Spine3
				{
					OFFSET 0.000000 0.000000 2.305330
					CHANNELS 6 Xposition Yposition Zposition Xrotation Yrotation Zrotation
					JOINT Neck
					{
						OFFSET 0.000000 -0.864490 6.051487
						CHANNELS 6 Xposition Yposition Zposition Xrotation Yrotation Zrotation
						JOINT Head
						{
							OFFSET 0.000000 -0.550429 3.121674
							CHANNELS 6 Xposition Yposition Zposition Xrotation Yrotation Zrotation
							End Site
							{
								OFFSET 0.000000 0.000000 3.731750
							}
						}
					}
					JOINT RightShoulder
					{
						OFFSET -0.788280 -1.313800 4.256718
						CHANNELS 6 Xposition Yposition Zposition Xrotation Yrotation Zrotation
						JOINT RightArm
						{
							OFFSET -3.915130 0.000000 0.000000
							CHANNELS 6 Xposition Yposition Zposition Xrotation Yrotation Zrotation
							JOINT RightForeArm
							{
								OFFSET -6.914910 0.000000 0.000000
								CHANNELS 6 Xposition Yposition Zposition Xrotation Yrotation Zrotation
								JOINT RightHand
								{
									OFFSET -6.096219 0.000000 0.000000
									CHANNELS 6 Xposition Yposition Zposition Xrotation Yrotation Zrotation
									JOINT RightHandEnd
									{
										OFFSET -1.749950 0.000000 0.000000
										CHANNELS 6 Xposition Yposition Zposition Xrotation Yrotation Zrotation
										End Site
										{
											OFFSET -1.749950 0.000000 0.000000
										}
									}
									JOINT RightHandThumb1
									{
										OFFSET -0.699980 -1.166630 -0.466648
										CHANNELS 6 Xposition Yposition Zposition Xrotation Yrotation Zrotation
										End Site
										{
											OFFSET -1.690319 -0.452920 0.000000
										}
									}
								}
							}
						}
					}
					JOINT LeftShoulder
					{
						OFFSET 0.788280 -1.313800 4.256718
						CHANNELS 6 Xposition Yposition Zposition Xrotation Yrotation Zrotation
						JOINT LeftArm
						{
							OFFSET 3.915130 0.000000 0.000000
							CHANNELS 6 Xposition Yposition Zposition Xrotation Yrotation Zrotation
							JOINT LeftForeArm
							{
								OFFSET 6.914910 0.000000 0.000000
								CHANNELS 6 Xposition Yposition Zposition Xrotation Yrotation Zrotation
								JOINT LeftHand
								{
									OFFSET 6.096219 0.000000 0.000000
									CHANNELS 6 Xposition Yposition Zposition Xrotation Yrotation Zrotation
									JOINT LeftHandEnd
									{
										OFFSET 1.749950 0.000000 0.000000
										CHANNELS 6 Xposition Yposition Zposition Xrotation Yrotation Zrotation
										End Site
										{
											OFFSET 1.749950 0.000000 0.000000
										}
									}
									JOINT LeftHandThumb1
									{
										OFFSET 0.699980 -1.166630 -0.466648
										CHANNELS 6 Xposition Yposition Zposition Xrotation Yrotation Zrotation
										End Site
										{
											OFFSET 1.690319 -0.452920 0.000000
										}
									}
								}
							}
						}
					}
				}
			}
		}
	}
	JOINT RightUpLeg
	{
		OFFSET -2.338570 -0.252550 -0.551512
		CHANNELS 6 Xposition Yposition Zposition Xrotation Yrotation Zrotation
		JOINT RightLeg
		{
			OFFSET 0.000000 0.000000 -10.744959
			CHANNELS 6 Xposition Yposition Zposition Xrotation Yrotation Zrotation
			JOINT RightFoot
			{
				OFFSET 0.000000 -0.000001 -10.930849
				CHANNELS 6 Xposition Yposition Zposition Xrotation Yrotation Zrotation
				JOINT RightToeBase
				{
					OFFSET 0.000000 -4.087269 -1.487650
					CHANNELS 6 Xposition Yposition Zposition Xrotation Yrotation Zrotation
					End Site
					{
						OFFSET 0.000000 -1.891870 0.000000
					}
				}
			}
		}
	}
	JOINT LeftUpLeg
	{
		OFFSET 2.338570 -0.252550 -0.551512
		CHANNELS 6 Xposition Yposition Zposition Xrotation Yrotation Zrotation
		JOINT LeftLeg
		{
			OFFSET 0.000000 0.000000 -10.744959
			CHANNELS 6 Xposition Yposition Zposition Xrotation Yrotation Zrotation
			JOINT LeftFoot
			{
				OFFSET 0.000000 -0.000001 -10.930849
				CHANNELS 6 Xposition Yposition Zposition Xrotation Yrotation Zrotation
				JOINT LeftToeBase
				{
					OFFSET 0.000000 -4.087269 -1.487650
					CHANNELS 6 Xposition Yposition Zposition Xrotation Yrotation Zrotation
					End Site
					{
						OFFSET 0.000000 -1.891870 0.000000
					}
				}
			}
		}
	}
}
MOTION
Frames: 4
Frame Time: 0.041667
0.000030 26.770111 33.778179 -7.648369 -21.949026 69.348543 -0.000019 0.900087 1.860697 19.643516 -6.795564 0.857517 0.000007 0.400251 2.270323 0.000003 -0.000000 0.000008 0.000015 0.200900 2.296570 0.000001 -0.000001 -0.000003 0.000027 0.000018 2.305330 -0.000009 -0.000001 4.961452 -0.000022 -0.864465 6.051428 -5.794054 2.221828 178.033908 0.000025 -0.550421 3.121681 -0.000005 0.000000 -0.000004 -0.788278 -1.313730 4.256832 186.859755 62.106657 -35.667671 -3.915146 -0.000019 -0.000008 0.000000 0.000000 0.000003 -6.914900 -0.000014 0.000002 -0.000004 -0.000008 -67.305989 -6.096192 0.000021 0.000045 -0.000070 -0.000001 -0.000032 -1.749897 -0.000040 0.000036 0.000002 -0.000000 -0.000001 -0.699970 -1.166625 -0.466656 -0.000011 -0.000003 -0.000008 0.788258 -1.313745 4.256780 -157.437732 -68.740547 36.870365 3.915168 0.000018 -0.000046 0.000005 0.000001 0.000009 6.914944 -0.000065 -0.000003 -0.000014 0.000014 80.253063 6.096227 0.000120 -0.000037 0.000023 0.000036 -0.000071 1.749986 0.000021 0.000028 -0.000001 -0.000004 -0.000003 0.699967 -1.166609 -0.466639 0.000014 0.000003 -0.000030 -2.338581 -0.252544 -0.551494 -45.985557 -9.268384 -1.857750 0.000006 -0.000019 -10.744959 85.091303 -5.516520 -7.505785 -0.000011 0.000082 -10.930838 0.000003 0.000002 -0.000002 0.000001 -4.087237 -1.487643 0.000005 0.000002 -0.000002 2.338574 -0.252525 -0.551493 -42.137793 4.535696 -1.705121 -0.000005 -0.000025 -10.744922 84.971187 -7.058429 6.429769 -0.000001 0.000010 -10.930864 -0.000009 -0.000001 -0.000005 -0.000017 -4.087197 -1.487640 -0.000004 0.000001 -0.000001 
0.000024 26.770113 33.778179 -7.633641 -22.041678 69.595502 -0.000019 0.900087 1.860700 19.811693 -6.820401 0.875847 0.000006 0.400252 2.270321 0.000003 -0.000002 0.000009 0.000016 0.200901 2.296570 0.000001 0.000000 -0.000000 0.000026 0.000016 2.305334 -0.000006 -0.000000 5.003800 -0.000021 -0.864466 6.051442 -5.770258 2.358050 177.867033 0.000024 -0.550417 3.121685 -0.000007 -0.000001 -0.000004 -0.788275 -1.313732 4.256834 186.478644 61.864090 -34.938627 -3.915141 -0.000022 -0.000008 -0.000000 -0.000000 -0.000001 -6.914905 -0.000014 0.000002 -0.000004 -0.000011 -67.247741 -6.096193 0.000021 0.000040 -0.000066 0.000000 -0.000032 -1.749895 -0.000045 0.000045 -0.000002 -0.000000 -0.000003 -0.699967 -1.166631 -0.466652 -0.000007 -0.000003 -0.000009 0.788258 -1.313747 4.256786 -158.449611 -68.919033 35.896015 3.915169 0.000018 -0.000049 0.000004 0.000000 0.000006 6.914940 -0.000060 0.000004 -0.000011 0.000013 80.027995 6.096226 0.000120 -0.000041 0.000023 0.000032 -0.000071 1.749984 0.000014 0.000043 -0.000005 -0.000004 -0.000000 0.699966 -1.166619 -0.466624 0.000014 -0.000001 -0.000028 -2.338584 -0.252546 -0.551492 -45.737972 -9.134248 -1.873190 0.000002 -0.000021 -10.744959 84.970422 -5.598937 -7.339985 -0.000012 0.000080 -10.930836 0.000003 0.000001 -0.000007 -0.000001 -4.087236 -1.487642 0.000002 0.000002 -0.000001 2.338573 -0.252529 -0.551487 -41.773444 4.590113 -1.715665 -0.000003 -0.000025 -10.744921 84.667175 -7.331277 6.519642 -0.000002 0.000011 -10.930861 -0.000009 0.000001 -0.000005 -0.000013 -4.087199 -1.487643 -0.000002 -0.000000 -0.000003 
0.000026 26.770115 33.778172 -7.638458 -22.140859 69.584950 -0.000021 0.900087 1.860701 19.996883 -6.703806 0.873199 0.000005 0.400251 2.270317 0.000003 -0.000001 0.000007 0.000014 0.200900 2.296572 0.000001 -0.000000 -0.000002 0.000027 0.000017 2.305322 -0.000006 -0.000004 5.084519 -0.000021 -0.864466 6.051430 -5.881000 2.411873 177.819290 0.000026 -0.550416 3.121681 -0.000008 0.000000 -0.000001 -0.788282 -1.313732 4.256827 186.699246 61.792380 -35.149571 -3.915149 -0.000025 -0.000008 0.000001 -0.000000 0.000001 -6.914906 -0.000015 0.000002 -0.000004 -0.000008 -67.296700 -6.096192 0.000022 0.000041 -0.000070 -0.000001 -0.000034 -1.749892 -0.000051 0.000045 0.000003 0.000001 -0.000001 -0.699969 -1.166637 -0.466645 -0.000005 -0.000003 -0.000007 0.788254 -1.313747 4.256782 -160.083706 -69.192958 34.315861 3.915169 0.000018 -0.000030 0.000003 0.000000 0.000009 6.914938 -0.000064 0.000001 -0.000009 0.000015 79.439710 6.096224 0.000122 -0.000041 0.000023 0.000033 -0.000073 1.749986 0.000012 0.000043 -0.000010 -0.000007 0.000001 0.699971 -1.166612 -0.466620 0.000014 -0.000003 -0.000025 -2.338585 -0.252545 -0.551493 -45.588968 -9.225783 -1.846988 0.000007 -0.000020 -10.744958 84.900993 -5.565312 -7.447231 -0.000011 0.000082 -10.930838 0.000002 -0.000002 -0.000004 0.000001 -4.087237 -1.487644 0.000002 0.000004 -0.000000 2.338572 -0.252528 -0.551486 -41.569501 4.646436 -1.688757 -0.000003 -0.000029 -10.744922 84.496489 -7.287506 6.556788 -0.000001 0.000010 -10.930865 -0.000009 -0.000000 -0.000002 -0.000018 -4.087199 -1.487641 -0.000002 0.000002 -0.000000 
0.000028 26.770115 33.778175 -7.679253 -22.177523 69.604470 -0.000021 0.900084 1.860701 20.056449 -6.819185 0.877475 0.000006 0.400250 2.270323 0.000002 -0.000002 0.000009 0.000016 0.200901 2.296570 -0.000000 -0.000000 -0.000000 0.000027 0.000018 2.305330 -0.000005 -0.000003 5.020084 -0.000021 -0.864467 6.051436 -5.918293 2.456214 178.046667 0.000026 -0.550417 3.121681 -0.000007 -0.000000 -0.000001 -0.788277 -1.313731 4.256828 187.046479 61.696805 -35.343507 -3.915144 -0.000023 -0.000004 0.000001 -0.000002 0.000001 -6.914907 -0.000017 0.000001 -0.000005 -0.000011 -67.342619 -6.096192 0.000029 0.000045 -0.000067 -0.000001 -0.000032 -1.749895 -0.000042 0.000045 -0.000001 0.000000 -0.000002 -0.699968 -1.166627 -0.466648 -0.000009 -0.000005 -0.000008 0.788262 -1.313747 4.256783 -161.206958 -69.561208 33.147495 3.915173 0.000017 -0.000046 0.000003 0.000000 0.000006 6.914937 -0.000065 0.000004 -0.000011 0.000016 79.713328 6.096225 0.000119 -0.000034 0.000025 0.000032 -0.000076 1.749987 0.000019 0.000042 -0.000007 -0.000006 -0.000000 0.699971 -1.166612 -0.466624 0.000018 -0.000002 -0.000029 -2.338587 -0.252548 -0.551490 -45.554462 -9.267952 -1.849537 0.000005 -0.000024 -10.744962 84.764403 -5.711375 -7.485781 -0.000013 0.000082 -10.930835 0.000005 0.000002 -0.000004 0.000005 -4.087236 -1.487643 0.000004 0.000001 -0.000001 2.338572 -0.252530 -0.551489 -41.446438 4.753305 -1.688183 -0.000000 -0.000027 -10.744921 84.429696 -7.505481 6.673022 -0.000001 0.000010 -10.930865 -0.000007 0.000003 -0.000006 -0.000017 -4.087200 -1.487641 0.000002 -0.000000 -0.000002 
